<?xml version="1.0" standalone="no"?>
<!DOCTYPE svg PUBLIC "-//W3C//DTD SVG 1.1//EN" "http://www.w3.org/Graphics/SVG/1.1/DTD/svg11.dtd" >
<svg xmlns="http://www.w3.org/2000/svg">
<metadata>Generated by IcoMoon</metadata>
<defs>
<font id="Icons" horiz-adv-x="1024">
<font-face units-per-em="1024" ascent="960" descent="-64" />
<missing-glyph horiz-adv-x="1024" />
<glyph unicode="&#x20;" horiz-adv-x="512" d="" />
<glyph unicode="&#xe900;" glyph-name="arrow-button" d="M928.853 448l-121.6-121.6v243.2l121.6-121.6zM1024 448c-0.069-4.853-2.379-9.153-5.939-11.921l-0.035-0.026-210.773-180.907v38.4l181.333 154.453-181.333 154.453v38.4l213.333-180.907c0.427-2.987 3.413-5.973 3.413-11.947zM0 462.933h831.147v-29.867h-831.147v29.867z" />
<glyph unicode="&#xe901;" glyph-name="arrow-down" d="M512 161.707l-526.933 527.36 29.867 29.867 497.067-496.64 497.067 496.64 29.867-29.867-526.933-527.36z" />
<glyph unicode="&#xe902;" glyph-name="arrow-left" d="M753.067-78.933l-527.36 526.933 527.36 526.933 29.867-29.867-496.64-497.067 496.64-497.067-29.867-29.867z" />
<glyph unicode="&#xe903;" glyph-name="arrow-right" d="M270.933-78.933l-29.867 29.867 496.64 497.067-496.64 497.067 29.867 29.867 527.36-526.933-527.36-526.933z" />
<glyph unicode="&#xe904;" glyph-name="arrow-up" d="M1009.067 177.067l-497.067 496.64-497.067-496.64-29.867 29.867 526.933 527.36 526.933-527.36-29.867-29.867z" />
<glyph unicode="&#xe905;" glyph-name="baby-cot" d="M53.76 812.373h48.64v-860.587h-48.64v860.587zM78.080 789.333c-42.934 0.248-77.643 35.11-77.643 78.079 0 43.122 34.958 78.080 78.080 78.080s78.080-34.958 78.080-78.080c0-0.45-0.004-0.898-0.011-1.346l0.001 0.067c-0.956-42.618-35.73-76.8-78.488-76.8-0.007 0-0.013 0-0.020 0h0.001zM78.080 896.853c-16.259 0-29.44-13.181-29.44-29.44s13.181-29.44 29.44-29.44c16.259 0 29.44 13.181 29.44 29.44v0c-0.704 15.699-13.603 28.16-29.412 28.16-0.010 0-0.020 0-0.029 0h0.002zM921.173 812.373h48.64v-860.587h-48.64v860.587zM945.92 789.333c-43.118 0.006-78.070 34.961-78.070 78.080 0 43.122 34.958 78.080 78.080 78.080s78.080-34.958 78.080-78.080c0-0.45-0.004-0.899-0.011-1.347l0.001 0.067c-0.952-42.475-35.497-76.572-78.058-76.8h-0.022zM945.92 896.853c-16.259 0-29.44-13.181-29.44-29.44s13.181-29.44 29.44-29.44c16.259 0 29.44 13.181 29.44 29.44v0c-0.704 15.699-13.603 28.16-29.412 28.16-0.010 0-0.020 0-0.029 0h0.002zM78.080 130.56h867.413v-48.64h-867.413v48.64zM78.080 260.693h867.413v-48.64h-867.413v48.64zM78.080 763.307h867.413v-48.64h-867.413v48.64zM266.24 738.987h48.64v-503.040h-48.64v503.040zM487.68 738.987h48.64v-503.040h-48.64v503.040zM709.12 738.987h48.64v-503.040h-48.64v503.040z" />
<glyph unicode="&#xe906;" glyph-name="bath-mat" d="M960 128h-896v640h896zM115.2 179.2h793.6v537.6h-793.6zM172.8 742.4h51.2v-588.8h-51.2v588.8zM800 742.4h51.2v-588.8h-51.2v588.8zM934.4 768h89.6v-51.2h-89.6v51.2zM934.4 571.733h89.6v-51.2h-89.6v51.2zM934.4 375.467h89.6v-51.2h-89.6v51.2zM934.4 179.2h89.6v-51.2h-89.6v51.2zM0 768h89.6v-51.2h-89.6v51.2zM0 571.733h89.6v-51.2h-89.6v51.2zM0 375.467h89.6v-51.2h-89.6v51.2zM0 179.2h89.6v-51.2h-89.6v51.2z" />
<glyph unicode="&#xe907;" glyph-name="bath-towel" d="M930.133 75.093h-768c-90.486 0-163.84 73.354-163.84 163.84s73.354 163.84 163.84 163.84v0h715.52v-48.64h-713.813c-60.535-3.802-108.192-53.829-108.192-114.987s47.657-111.185 107.86-114.97l0.332-0.017h768c24.978 0 45.227 20.249 45.227 45.227s-20.249 45.227-45.227 45.227v0h-71.68v48.64h69.973c51.959 0 94.080-42.121 94.080-94.080s-42.121-94.080-94.080-94.080v0zM804.693 354.133h-640c-90.486 0-163.84 73.354-163.84 163.84s73.354 163.84 163.84 163.84v0h712.96v-49.067h-713.813c-2.095 0.136-4.542 0.213-7.008 0.213-63.623 0-115.2-51.577-115.2-115.2s51.577-115.2 115.2-115.2c2.465 0 4.913 0.077 7.34 0.23l-0.332-0.017h640zM860.16 214.613h-713.813v48.64h713.813c60.535 3.802 108.192 53.829 108.192 114.987s-47.657 111.185-107.86 114.97l-0.332 0.017h-713.813v48.64h713.813c90.486 0 163.84-73.354 163.84-163.84s-73.354-163.84-163.84-163.84v0zM860.16 493.227h-713.813v48.64h713.813c60.535 3.802 108.192 53.829 108.192 114.987s-47.657 111.185-107.86 114.97l-0.332 0.017h-766.293c-24.978 0-45.227-20.249-45.227-45.227s20.249-45.227 45.227-45.227v0h69.973v-48.64h-69.973c-51.959 0-94.080 42.121-94.080 94.080s42.121 94.080 94.080 94.080v0h768c90.486 0 163.84-73.354 163.84-163.84s-73.354-163.84-163.84-163.84v0z" />
<glyph unicode="&#xe908;" glyph-name="bathrobe" d="M822.187-64h-416.853l-35.84 490.24 248.747 533.76 181.76-131.413 224-541.867-140.8-77.227-148.48 281.173-29.013-81.92zM450.133-15.787h310.613l-105.387 426.667 69.973 200.96 177.92-334.507 59.733 32.853-201.813 487.253-123.733 89.173-218.88-469.333zM578.133-64h-394.667l116.48 474.453-28.16 79.36-130.56-269.653-141.227 77.653 205.227 530.773 182.187 131.413 137.387-294.827-43.947-20.053-112.64 241.92-123.307-89.173-184.747-478.293 59.733-32.853 158.72 327.68 71.68-201.387-104.96-428.8h332.8v-48.213zM325.12 435.627h355.413v-48.213h-355.413v48.213z" />
<glyph unicode="&#xe909;" glyph-name="bathroom" d="M945.92 267.093h-867.84c-43.24 0-78.293 35.053-78.293 78.293s35.053 78.293 78.293 78.293v0h867.84c43.24 0 78.293-35.053 78.293-78.293s-35.053-78.293-78.293-78.293v0zM78.080 375.040c-16.259 0-29.44-13.181-29.44-29.44s13.181-29.44 29.44-29.44h867.84c16.259 0 29.44 13.181 29.44 29.44s-13.181 29.44-29.44 29.44v0zM672-64h-320c-0.166 0-0.362-0.001-0.558-0.001-107.316 0-198.34 69.753-230.207 166.395l-0.489 1.712-69.12 213.333h920.747l-69.12-213.333c-32.356-98.354-123.38-168.107-230.696-168.107-0.196 0-0.392 0-0.588 0.001h0.030zM117.333 267.093l48.213-148.053c25.852-78.631 98.615-134.4 184.405-134.4 0.12 0 0.241 0 0.361 0h319.981c0.102 0 0.222 0 0.342 0 85.789 0 158.553 55.769 184.014 133.031l0.391 1.369 48.213 148.053zM146.347 399.36h-48.64v429.653c0 72.342 58.645 130.987 130.987 130.987s130.987-58.645 130.987-130.987v0-5.973h-48.64v5.973c0 45.479-36.868 82.347-82.347 82.347s-82.347-36.868-82.347-82.347v0zM437.76 720.213h-205.227v26.453c3.581 53.868 48.153 96.206 102.613 96.206s99.032-42.338 102.597-95.896l0.017-0.311zM287.147 768.853h96.853c-9.053 17.668-27.139 29.55-48 29.55s-38.947-11.882-47.859-29.247l-0.141-0.303z" />
<glyph unicode="&#xe90a;" glyph-name="bedding" d="M0 609.707h48.64v-661.333h-48.64v661.333zM975.36 609.707h48.64v-661.333h-48.64v661.333zM24.32 269.653h975.36v-48.64h-975.36v48.64zM24.32 460.373h975.36v-48.64h-975.36v48.64zM24.32 130.987h975.36v-48.64h-975.36v48.64zM957.013 411.307h-890.027v329.387c0.243 114.338 92.988 206.933 207.36 206.933 0 0 0 0 0 0h475.307c114.522 0 207.36-92.838 207.36-207.36v0zM115.627 460.373h792.747v280.32c-0.242 87.326-70.968 158.051-158.27 158.293h-475.756c0 0 0 0-0.001 0-87.509 0-158.477-70.818-158.719-158.27v-0.023zM482.987 411.307h-322.987v235.947h322.987zM208.64 460.373h225.707v137.813h-225.707zM864 411.307h-322.987v235.947h322.987zM589.653 459.947h225.707v138.24h-225.707z" />
<glyph unicode="&#xe90b;" glyph-name="comb" d="M673.28-64c-0.101 0-0.221-0.001-0.342-0.001-26.531 0-50.548 10.762-67.924 28.16l-576.854 576.854c-17.499 17.458-28.326 41.598-28.326 68.267s10.826 50.809 28.324 68.265l0.002 0.002 282.88 282.453 34.56-34.56-282.453-282.88c-8.447-8.549-13.664-20.305-13.664-33.28s5.217-24.731 13.669-33.285l576.848-576.848c8.571-8.573 20.413-13.876 33.493-13.876s24.922 5.303 33.493 13.876v0l282.453 282.88 34.56-34.56-282.453-282.88c-17.399-17.633-41.554-28.563-68.262-28.587h-0.005zM53.443 668.242l34.695 34.695 678.521-678.521-34.695-34.695-678.521 678.521zM129.856 626.403l206.965 206.965 34.695-34.695-206.965-206.965-34.695 34.695zM217.588 538.634l206.965 206.965 34.695-34.695-206.965-206.965-34.695 34.695zM305.32 451.469l206.965 206.965 34.695-34.695-206.965-206.965-34.695 34.695zM392.749 363.576l206.965 206.965 34.695-34.695-206.965-206.965-34.695 34.695zM480.481 275.808l206.965 206.965 34.695-34.695-206.965-206.965-34.695 34.695zM568.213 188.643l206.965 206.965 34.695-34.695-206.965-206.965-34.695 34.695zM655.642 100.749l206.965 206.965 34.695-34.695-206.965-206.965-34.695 34.695z" />
<glyph unicode="&#xe90c;" glyph-name="conditioner" d="M934.827 375.040h-845.653c-49.152 0.241-88.932 40.021-89.173 89.15v399.383c0.241 49.152 40.021 88.932 89.15 89.173h845.676c49.152-0.241 88.932-40.021 89.173-89.15v-399.383c-0.241-49.152-40.021-88.932-89.15-89.173h-0.023zM89.173 904.107c-23.564 0-42.667-19.103-42.667-42.667v0-399.36c0-23.564 19.103-42.667 42.667-42.667v0h845.653c23.564 0 42.667 19.103 42.667 42.667v0 401.493c0 23.564-19.103 42.667-42.667 42.667v0zM394.24 855.893h235.52v-48.64h-235.52v48.64zM24.32 620.8h975.36v-48.64h-975.36v48.64zM24.32 523.52h975.36v-48.64h-975.36v48.64zM23.737-36.644l129.211 278.234 44.115-20.487-129.211-278.234-44.115 20.487zM487.68 231.68h48.64v-278.187h-48.64v278.187zM826.824 221.074l44.126 20.464 129.065-278.302-44.126-20.464-129.065 278.302z" />
<glyph unicode="&#xe90d;" glyph-name="dot-circle" d="M512 917.333c259.206 0 469.333-210.128 469.333-469.333s-210.128-469.333-469.333-469.333c-259.206 0-469.333 210.128-469.333 469.333v0c0 259.206 210.128 469.333 469.333 469.333v0zM512 960c-282.77 0-512-229.23-512-512s229.23-512 512-512c282.77 0 512 229.23 512 512v0c0 282.77-229.23 512-512 512v0zM853.333 448c0-188.513-152.82-341.333-341.333-341.333s-341.333 152.82-341.333 341.333c0 188.513 152.82 341.333 341.333 341.333s341.333-152.82 341.333-341.333z" />
<glyph unicode="&#xe90e;" glyph-name="extra-bed" d="M0 935.68h48.64v-975.36h-48.64v975.36zM975.36 629.76h48.64v-669.44h-48.64v669.44zM24.32 128h975.36v-48.64h-975.36v48.64zM24.32 337.493h975.36v-48.64h-975.36v48.64zM341.333 415.573h-341.333v184.747h178.773c0.507 0.006 1.107 0.009 1.707 0.009 88.69 0 160.615-71.779 160.853-160.413v-0.023zM48.64 464.213h238.933c-12.319 49.352-56.263 85.335-108.612 85.335-0.216 0-0.432-0.001-0.648-0.002h-127.967zM24.32 464.213h985.173v-48.64h-985.173v48.64z" />
<glyph unicode="&#xe90f;" glyph-name="face-towel" d="M848.64 247.040h-49.067v627.627c0 19.558-15.855 35.413-35.413 35.413v0h-504.32c-19.558 0-35.413-15.855-35.413-35.413v0-627.627h-49.067v627.627c0 47.128 38.205 85.333 85.333 85.333v0h503.467c47.128 0 85.333-38.205 85.333-85.333v0zM80.213 461.227c-0.126-0.001-0.276-0.001-0.426-0.001-44.301 0-80.213 35.913-80.213 80.213s35.913 80.213 80.213 80.213c44.301 0 80.213-35.913 80.213-80.213 0-0.15 0-0.299-0.001-0.448v0.023c-0.241-43.968-35.819-79.546-79.764-79.787h-0.023zM80.213 572.587c-17.202 0-31.147-13.945-31.147-31.147s13.945-31.147 31.147-31.147c17.202 0 31.147 13.945 31.147 31.147v0c0 17.202-13.945 31.147-31.147 31.147v0zM944.213 461.227c-0.126-0.001-0.276-0.001-0.426-0.001-44.301 0-80.213 35.913-80.213 80.213s35.913 80.213 80.213 80.213c44.301 0 80.213-35.913 80.213-80.213 0-0.15 0-0.299-0.001-0.448v0.023c-0.241-43.968-35.819-79.546-79.764-79.787h-0.023zM944.213 572.587c-17.202 0-31.147-13.945-31.147-31.147s13.945-31.147 31.147-31.147c17.202 0 31.147 13.945 31.147 31.147v0c0 17.202-13.945 31.147-31.147 31.147v0zM824.32 565.333h64.427v-48.64h-64.427v48.64zM135.253 565.333h64.427v-48.64h-64.427v48.64zM80.213 754.347c-0.126-0.001-0.276-0.001-0.426-0.001-44.301 0-80.213 35.913-80.213 80.213s35.913 80.213 80.213 80.213c44.301 0 80.213-35.913 80.213-80.213 0-0.15 0-0.299-0.001-0.448v0.023c-0.241-43.968-35.819-79.546-79.764-79.787h-0.023zM80.213 865.707c-17.202 0-31.147-13.945-31.147-31.147s13.945-31.147 31.147-31.147c17.202 0 31.147 13.945 31.147 31.147v0c-0.241 17.017-14.092 30.72-31.144 30.72-0.001 0-0.002 0-0.003 0v0zM944.213 754.347c-0.126-0.001-0.276-0.001-0.426-0.001-44.301 0-80.213 35.913-80.213 80.213s35.913 80.213 80.213 80.213c44.301 0 80.213-35.913 80.213-80.213 0-0.15 0-0.299-0.001-0.448v0.023c-0.241-43.968-35.819-79.546-79.764-79.787h-0.023zM944.213 865.707c-17.202 0-31.147-13.945-31.147-31.147s13.945-31.147 31.147-31.147c17.202 0 31.147 13.945 31.147 31.147v0c-0.241 17.017-14.092 30.72-31.144 30.72-0.001 0-0.002 0-0.003 0v0zM824.32 858.453h64.427v-48.64h-64.427v48.64zM135.253 858.453h64.427v-48.64h-64.427v48.64zM848.64-64h-673.28v653.227c0 47.128 38.205 85.333 85.333 85.333v0h503.467c47.128 0 85.333-38.205 85.333-85.333v0zM224.427-15.36h575.147v604.587c0 19.558-15.855 35.413-35.413 35.413v0h-504.32c-19.558 0-35.413-15.855-35.413-35.413v0zM199.68 123.733h624.213v-48.64h-624.213v48.64z" />
<glyph unicode="&#xe910;" glyph-name="facebook" d="M584.107 608v128c2.252 35.873 31.898 64.115 68.14 64.115 1.395 0 2.781-0.042 4.155-0.124l-0.189 0.009h72.107v160h-144.213c-3.309 0.19-7.179 0.299-11.074 0.299-108.795 0-197.818-84.657-204.787-191.69l-0.032-0.609v-160h-144.213v-160h144.213v-512h215.893v512h144.213l72.107 160z" />
<glyph unicode="&#xe911;" glyph-name="floor" d="M373.76 179.2h-373.76v780.8h373.76zM48.64 227.84h276.48v682.667h-276.48zM698.88-64h-373.76v780.8h373.76zM373.76-14.507h276.48v682.667h-276.48zM1024 179.2h-373.76v780.8h373.76zM698.88 227.84h276.48v682.667h-276.48z" />
<glyph unicode="&#xe912;" glyph-name="hair-dryer" d="M302.933 362.667c-164.949 0-298.667 133.718-298.667 298.667s133.718 298.667 298.667 298.667v0c85.333 0 671.573-92.587 696.32-96.427l20.48-3.413v-397.653l-20.48-3.413c-24.747-3.84-611.84-96.427-696.32-96.427zM302.933 911.36c-138.086 0-250.027-111.941-250.027-250.027s111.941-250.027 250.027-250.027v0c62.72 0 453.12 58.88 668.16 92.587v314.453c-215.467 34.133-605.867 93.013-668.16 93.013zM406.187-64c-75.927 0.115-138.29 58.033-145.447 132.097l-0.047 0.596-30.72 320.427 48.64 4.693 30.72-320.427c2.74-28.611 17.449-53.321 38.994-69.362l0.26-0.185c15.955-11.69 35.975-18.706 57.632-18.706 35.757 0 67.047 19.124 84.2 47.702l0.247 0.445c8.539 14.293 13.588 31.526 13.588 49.939 0 10.662-1.693 20.928-4.825 30.545l0.196-0.697-90.453 279.467 46.507 14.933 90.453-279.893c4.451-13.397 7.019-28.821 7.019-44.844 0-70.555-49.783-129.482-116.139-143.572l-0.96-0.171c-8.754-1.9-18.81-2.989-29.12-2.989-0.263 0-0.525 0.001-0.787 0.002h0.040zM279.962 94.942l238.13 49.401 9.88-47.626-238.13-49.401-9.88 47.626zM860.587 852.053h48.64v-381.44h-48.64v381.44z" />
<glyph unicode="&#xe913;" glyph-name="instagram" d="M741.547 960h-459.093c-155.897-0.243-282.211-126.557-282.453-282.43v-459.116c0.243-155.897 126.557-282.211 282.43-282.453h459.116c155.897 0.243 282.211 126.557 282.453 282.43v459.116c-0.243 155.897-126.557 282.211-282.43 282.453h-0.023zM933.12 218.453c-0.242-105.706-85.868-191.331-191.55-191.573h-459.116c-105.706 0.242-191.331 85.868-191.573 191.55v459.116c0.242 105.706 85.868 191.331 191.55 191.573h459.116c105.706-0.242 191.331-85.868 191.573-191.55v-459.116zM512 711.68c-145.626 0-263.68-118.054-263.68-263.68s118.054-263.68 263.68-263.68c145.626 0 263.68 118.054 263.68 263.68v0c-0.242 145.529-118.151 263.438-263.657 263.68h-0.023zM512 274.773c-95.435 0-172.799 77.365-172.799 172.8s77.365 172.8 172.8 172.8c95.285 0 172.557-77.122 172.799-172.35v-0.023c-0.242-95.337-77.463-172.558-172.777-172.8h-0.023zM786.773 789.333c-0.078 0-0.171 0.001-0.264 0.001-36.76 0-66.56-29.8-66.56-66.56s29.8-66.56 66.56-66.56c36.76 0 66.56 29.8 66.56 66.56 0 18.314-7.397 34.901-19.366 46.936l0.003-0.003c-12.021 12.025-28.592 19.502-46.91 19.627h-0.024z" />
<glyph unicode="&#xe914;" glyph-name="iron" d="M372.907 398.507c0-16.495-13.372-29.867-29.867-29.867s-29.867 13.372-29.867 29.867c0 16.495 13.372 29.867 29.867 29.867s29.867-13.372 29.867-29.867zM587.52 398.507c0-16.495-13.372-29.867-29.867-29.867s-29.867 13.372-29.867 29.867c0 16.495 13.372 29.867 29.867 29.867s29.867-13.372 29.867-29.867zM802.133 398.507c0-16.495-13.372-29.867-29.867-29.867s-29.867 13.372-29.867 29.867c0 16.495 13.372 29.867 29.867 29.867s29.867-13.372 29.867-29.867zM1024 139.093h-1024v24.32c0 70.692 57.308 128 128 128v0h896zM52.48 187.733h922.88v54.613h-847.36c-0.035 0-0.076 0-0.117 0-34.981 0-64.676-22.633-75.24-54.054l-0.163-0.56zM1024 267.093h-48.64v392.107h-443.733c-1.923 0.033-4.192 0.052-6.465 0.052-218.028 0-395.249-174.718-399.29-391.781l-0.006-0.378h-49.067c4.292 244.354 203.387 440.793 448.362 440.793 2.273 0 4.543-0.017 6.808-0.051l-0.343 0.004h492.373zM1024 683.52h-48.64v221.44h-531.627l-152.32-152.32-34.56 34.56 166.4 166.4h600.747v-270.080zM155.066-34.263l77.945 143.14 42.717-23.261-77.945-143.14-42.717 23.261zM481.707 97.28h48.64v-143.36h-48.64v143.36zM736.384 85.717l42.709 23.276 77.995-143.113-42.709-23.276-77.995 143.113z" />
<glyph unicode="&#xe915;" glyph-name="laundry-bag" d="M696.747 776.96h-369.493l-97.707 183.040h564.907zM355.413 825.173h311.893l46.507 85.333h-404.053zM412.587 800.853h48.213v-270.933h-48.213v270.933zM557.227 800.853h48.213v-270.933h-48.213v270.933zM7.68-64v505.173c0 212.077 171.923 384 384 384v0h241.067c212.077 0 384-171.923 384-384v0-489.387zM391.68 776.96c-185.352-0.243-335.544-150.435-335.787-335.764v-456.556l912.64 14.080v442.453c-0.243 185.352-150.435 335.544-335.764 335.787h-0.023z" />
<glyph unicode="&#xe916;" glyph-name="minibar" d="M913.92 21.333h-803.84v832.853h803.84zM158.72 69.973h706.56v735.573h-706.56zM355.84 673.707h48.64v-178.773h-48.64v178.773zM483.84 68.267h-207.36v341.333c3.27 55.54 44.715 100.492 98.314 109.137l0.673 0.090h9.387c53.431-8.739 94.345-52.567 98.535-106.692l0.025-0.402zM325.547 116.907h109.653v294.4c0 38.827-42.667 53.76-55.040 58.027-14.507-4.267-55.040-19.627-55.040-58.027zM616.533 239.36h48.64v-178.773h-48.64v178.773zM640 214.613h-4.693c-53.431 8.739-94.345 52.567-98.535 106.692l-0.025 0.402v109.653h48.64v-108.8c0-38.827 42.667-53.76 55.040-58.027 14.507 4.267 55.040 19.627 55.040 58.027v108.8h48.64v-108.8c-4.215-54.526-45.129-98.354-97.881-107.001l-0.679-0.092zM1024-64h-1024v1024h1024zM48.64-15.36h926.72v926.72h-926.72z" />
<glyph unicode="&#xe917;" glyph-name="non-smoking-room" d="M1024 362.667h-1024v183.467h1024zM48.64 409.6h926.72v87.893h-926.72zM268.373 521.813h48.64v-136.533h-48.64v136.533zM881.92 521.813h48.64v-136.533h-48.64v136.533zM39.726-21.472l898.237 972.047 35.723-33.011-898.237-972.047-35.723 33.011z" />
<glyph unicode="&#xe918;" glyph-name="pdf" d="M661.76 960h-458.667v-481.707h-75.093v-283.733h75.093v-258.56h692.907v792.747zM674.133 887.467l147.627-146.347h-147.627zM170.667 237.227v199.253h449.28v-199.253h-449.28zM245.76-21.333v215.893h417.28v283.733h-417.28v439.040h384v-218.88h223.573v-719.787z" />
<glyph unicode="&#xe919;" glyph-name="phone" d="M757.333-64c-80.336 2.62-155.17 23.79-221.111 59.336l2.657-1.309c-256.853 127.147-508.16 432.213-538.88 653.227-12.373 105.387 97.707 284.587 190.72 309.76 22.613 5.547 78.080 11.093 110.507-66.56l75.947-178.347c5.209-13.646 8.225-29.428 8.225-45.915 0-42.231-19.792-79.84-50.607-104.056l-0.285-0.216c-13.653-14.080-26.453-26.88-26.027-37.12 26.446-56.365 58.836-104.862 97.344-147.755l-0.49 0.555c37.973-42.667 158.72-142.080 218.027-157.44 10.667-2.56 30.72 20.907 40.107 32.427l8.533 10.24 24.32 28.16c39.68 46.933 61.44 67.84 124.16 32.427l170.667-96.427c20.748-13.494 34.276-36.567 34.276-62.799 0-1.623-0.052-3.235-0.154-4.832l0.011 0.218c-13.139-79.291-58.652-145.959-122.23-187.081l-1.076-0.652c-39.836-22.595-87.5-35.911-138.273-35.911-2.239 0-4.471 0.026-6.697 0.077l0.331-0.006zM213.333 911.36c-1.73 0.249-3.729 0.391-5.76 0.391s-4.030-0.142-5.985-0.417l0.225 0.026c-70.827-18.773-164.267-174.507-154.027-256 29.013-207.36 272.213-498.773 512.427-617.387 85.333-42.667 213.333-81.92 316.16-23.040 50.292 33.317 86.273 84.783 98.729 144.862l0.257 1.484c0.152 1.049 0.239 2.26 0.239 3.491 0 8.818-4.458 16.594-11.243 21.198l-0.090 0.057-170.667 95.573c-30.293 17.067-30.293 17.067-62.72-21.333l-25.173-29.013-7.253-8.533c-17.067-20.907-48.213-59.733-90.027-49.067-72.96 18.773-200.533 124.16-242.773 172.8 0 0-107.52 128-108.8 177.493 3.145 29.946 18.779 55.714 41.523 72.331l0.29 0.202c26.88 27.733 50.347 51.627 33.707 98.133l-76.373 177.067c-13.653 33.28-29.44 39.68-42.667 39.68z" />
<glyph unicode="&#xe91a;" glyph-name="plane" d="M1018.88 932.267c-2.661 2.492-6.25 4.022-10.196 4.022-2.343 0-4.56-0.539-6.533-1.501l0.088 0.039-993.28-475.733c-5.412-2.581-9.084-8.008-9.084-14.293s3.673-11.712 8.989-14.252l0.095-0.041 281.173-142.080c2.241-1.416 4.969-2.257 7.893-2.257s5.652 0.84 7.955 2.293l-0.062-0.036 273.493 210.347-213.333-227.413c-2.679-2.884-4.323-6.761-4.323-11.022 0-0.476 0.020-0.946 0.061-1.411l-0.004 0.060 21.333-286.72c0.541-6.368 4.789-11.619 10.556-13.62l0.111-0.033h4.693c4.643 0.030 8.78 2.175 11.498 5.519l0.022 0.027 149.333 178.347 184.32-90.88c1.873-0.909 4.075-1.441 6.4-1.441s4.527 0.532 6.489 1.48l-0.089-0.039c4.1 1.915 7.188 5.42 8.504 9.701l0.030 0.112 258.987 855.893c0.163 0.864 0.257 1.858 0.257 2.874 0 4.781-2.070 9.079-5.362 12.047l-0.014 0.013z" />
<glyph unicode="&#xe91b;" glyph-name="private-sitting-area" d="M384 415.147h-165.547v544.853h165.547zM268.373 465.067h65.28v445.013h-65.28zM805.547 299.947h-587.093v165.12h587.093zM268.373 349.867h487.253v65.28h-487.253zM755.627 324.693h49.92v-388.693h-49.92v388.693zM218.453 324.693h49.92v-388.693h-49.92v388.693z" />
<glyph unicode="&#xe91c;" glyph-name="razor-set" d="M874.24 691.627h-725.333v268.373h725.333zM198.4 740.693h627.2v170.667h-627.2zM605.44-64h-186.88v645.973h186.88zM469.333-15.36h85.333v548.693h-85.333zM571.307 533.333h-118.613v207.36h119.040zM501.333 581.973h21.333v109.653h-21.333zM174.080 850.347h676.267v-48.64h-676.267v48.64z" />
<glyph unicode="&#xe91d;" glyph-name="room-area" d="M24.32-15.36h975.36v-48.64h-975.36v48.64zM856.32-64h-688.64v1024h688.64zM216.32-15.36h591.36v926.72h-591.36zM680.96 523.093h48.64v-193.28h-48.64v193.28z" />
<glyph unicode="&#xe91e;" glyph-name="safe-box" d="M1024-51.627h-1024v999.253h1024zM48.64-2.987h926.72v901.973h-926.72zM926.293 42.667h-828.587v810.667h828.587zM146.347 91.307h731.307v713.387h-731.307zM512 281.6c-91.9 0-166.4 74.5-166.4 166.4s74.5 166.4 166.4 166.4c91.9 0 166.4-74.5 166.4-166.4v0c-0.242-91.803-74.597-166.158-166.377-166.4h-0.023zM512 566.187c-65.037 0-117.759-52.723-117.759-117.76s52.723-117.76 117.76-117.76c64.887 0 117.517 52.48 117.759 117.31v0.023c0 65.037-52.723 117.76-117.76 117.76v0zM487.68 448h48.64v-142.080h-48.64v142.080zM500.105 468.797l123.057 71.019 24.313-42.128-123.057-71.019-24.313 42.128zM376.658 497.947l24.327 42.119 123.032-71.061-24.327-42.119-123.032 71.061zM468.48 598.187h87.467v-48.64h-87.467v48.64zM468.48 346.88h87.467v-48.64h-87.467v48.64z" />
<glyph unicode="&#xe91f;" glyph-name="sanitary-bag" d="M1024-64h-1024v1024h1024zM48.64-15.36h926.72v926.72h-926.72zM637.013 698.027h-286.72c-40.413 0-73.173 32.761-73.173 73.173s32.761 73.173 73.173 73.173v0h286.293c40.413 0 73.173-32.761 73.173-73.173s-32.761-73.173-73.173-73.173v0zM350.293 795.307c-13.432 0-24.32-10.888-24.32-24.32s10.888-24.32 24.32-24.32v0h286.293c13.432 0 24.32 10.888 24.32 24.32s-10.888 24.32-24.32 24.32v0zM103.68 88.32h816.64v-48.64h-816.64v48.64zM487.68 529.067h48.64v-207.36h-48.64v207.36zM408.32 450.133h207.36v-48.64h-207.36v48.64z" />
<glyph unicode="&#xe920;" glyph-name="shampoo" d="M251.733 935.68h48.64v-98.56h-48.64v98.56zM566.187 861.44l-49.92 49.92h-398.080v48.64h418.56l63.573-64-34.133-34.56zM549.12-64h-549.12v670.293l106.667 132.693h338.347l104.107-133.12zM48.64-15.36h451.84v604.587l-78.933 101.12h-293.547l-79.36-101.12zM388.693 690.347h-228.267v165.12h228.267zM209.067 738.987h132.267v67.84h-132.267zM623.36 645.973c-0.035 0-0.077 0-0.119 0-45.479 0-82.347 36.868-82.347 82.347s36.868 82.347 82.347 82.347c45.479 0 82.347-36.868 82.347-82.347 0-13.539-3.268-26.315-9.057-37.583l0.216 0.463c-13.856-27.008-41.494-45.179-73.38-45.227h-0.006zM623.36 762.027c-0.104 0.001-0.227 0.002-0.351 0.002-18.616 0-33.707-15.091-33.707-33.707s15.091-33.707 33.707-33.707c13.175 0 24.585 7.56 30.129 18.578l0.088 0.194c2.201 4.356 3.489 9.495 3.489 14.935 0 18.492-14.892 33.507-33.337 33.705h-0.019zM887.040 450.987c-75.641 0-136.959 61.319-136.959 136.96s61.319 136.96 136.96 136.96c75.491 0 136.717-61.076 136.959-136.51v-0.023c0 0 0 0 0-0.001 0-75.726-61.267-137.143-136.937-137.386h-0.023zM887.040 676.693c-48.778 0-88.32-39.542-88.32-88.32s39.542-88.32 88.32-88.32c48.778 0 88.32 39.542 88.32 88.32v0c0 48.778-39.542 88.32-88.32 88.32v0zM729.173 282.453c-0.245-0.003-0.535-0.004-0.826-0.004-45.479 0-82.347 36.868-82.347 82.347s36.868 82.347 82.347 82.347c45.479 0 82.347-36.868 82.347-82.347 0-0.749-0.010-1.495-0.030-2.239l0.002 0.11c-1.181-44.265-37.118-79.754-81.449-80.213h-0.044zM729.173 398.080c-18.616 0-33.707-15.091-33.707-33.707s15.091-33.707 33.707-33.707c18.616 0 33.707 15.091 33.707 33.707v0c0 18.616-15.091 33.707-33.707 33.707v0z" />
<glyph unicode="&#xe921;" glyph-name="shopping-bag" d="M981.333-64h-938.667l152.32 702.293h634.027zM103.253-15.36h817.493l-130.987 604.587h-554.667zM702.293 501.76h-49.067v267.947c0 78.115-63.325 141.44-141.44 141.44s-141.44-63.325-141.44-141.44v0-268.373h-48.64v268.373c0 105.096 85.197 190.293 190.293 190.293s190.293-85.197 190.293-190.293v0z" />
<glyph unicode="&#xe922;" glyph-name="shower-and-bathtub" d="M945.92 267.093h-867.84c-43.24 0-78.293 35.053-78.293 78.293s35.053 78.293 78.293 78.293v0h867.84c43.24 0 78.293-35.053 78.293-78.293s-35.053-78.293-78.293-78.293v0zM78.080 375.040c-16.259 0-29.44-13.181-29.44-29.44s13.181-29.44 29.44-29.44h867.84c16.259 0 29.44 13.181 29.44 29.44s-13.181 29.44-29.44 29.44v0zM672-64h-320c-0.166 0-0.362-0.001-0.558-0.001-107.316 0-198.34 69.753-230.207 166.395l-0.489 1.712-69.12 213.333h920.747l-69.12-213.333c-32.356-98.354-123.38-168.107-230.696-168.107-0.196 0-0.392 0-0.588 0.001h0.030zM117.333 267.093l48.213-148.053c25.852-78.631 98.615-134.4 184.405-134.4 0.12 0 0.241 0 0.361 0h319.981c0.102 0 0.222 0 0.342 0 85.789 0 158.553 55.769 184.014 133.031l0.391 1.369 48.213 148.053zM146.347 399.36h-48.64v429.653c0 72.342 58.645 130.987 130.987 130.987s130.987-58.645 130.987-130.987v0-5.973h-48.64v5.973c0 45.479-36.868 82.347-82.347 82.347s-82.347-36.868-82.347-82.347v0zM437.76 720.213h-205.227v26.453c3.581 53.868 48.153 96.206 102.613 96.206s99.032-42.338 102.597-95.896l0.017-0.311zM287.147 768.853h96.853c-9.053 17.668-27.139 29.55-48 29.55s-38.947-11.882-47.859-29.247l-0.141-0.303z" />
<glyph unicode="&#xe923;" glyph-name="shower-cap" d="M829.867 180.48h-636.16c-106.209 6.106-190.444 92.121-193.699 198.516l-0.008 0.311c-0.239 3.853-0.376 8.357-0.376 12.892 0 60.053 23.905 114.522 62.718 154.412l-0.049-0.050c13.591 14.666 28.541 27.72 44.76 39.087l0.893 0.593c72.080 48.901 134.649 103.61 189.893 165.039l0.827 0.935c50.5 59.714 125.471 97.373 209.237 97.373 73.913 0 140.977-29.32 190.197-76.964l-0.074 0.071c69.483-66.813 144.377-129.389 223.457-186.531l6.090-4.189 15.36-11.52c41.764-33.811 70.692-82.038 79.203-137.011l0.157-1.229c1.697-10.581 2.666-22.781 2.666-35.207 0-57.634-20.853-110.398-55.425-151.158l0.279 0.338c-33.694-40.146-83.838-65.536-139.917-65.707h-0.030zM507.733 800.853c-69.274-0.814-131.113-31.962-172.967-80.756l-0.26-0.311c-58.601-65.225-123.967-122.46-195.541-171.264l-3.712-2.389c-14.060-9.918-26.354-20.722-37.402-32.695l-0.145-0.159c-30.238-31.398-48.864-74.162-48.864-121.278 0-3.115 0.081-6.211 0.242-9.286l-0.018 0.43c1.129-81.385 64.174-147.692 144.096-153.992l0.544-0.034h636.16c41.035 0.354 77.662 18.927 102.235 48.013l0.165 0.201c27.75 32.191 44.651 74.418 44.651 120.593 0 9.539-0.721 18.91-2.112 28.060l0.128-1.026c-6.917 44.215-29.953 82.074-62.792 108.102l-0.354 0.271-12.373 9.387c-87.224 62.826-163.928 126.942-235.777 196.068l0.684-0.654c-40.77 38.597-95.868 62.423-156.528 62.72h-0.059zM960.427 46.507h-37.12c-2.445-0.074-5.321-0.117-8.206-0.117-35.646 0-69.783 6.457-101.307 18.265l1.993-0.655c-25.764 9.801-55.557 15.476-86.675 15.476-2.679 0-5.348-0.042-8.007-0.126l0.389 0.010c-1.827 0.042-3.98 0.066-6.138 0.066-33.243 0-65.166-5.649-94.862-16.039l2.013 0.613c-31.449-11.116-67.716-17.539-105.484-17.539-1.916 0-3.829 0.017-5.737 0.049l0.288-0.004c-1.722-0.033-3.753-0.051-5.788-0.051-37.798 0-74.096 6.425-107.86 18.242l2.288-0.697c-27.704 9.776-59.65 15.424-92.915 15.424-2.135 0-4.264-0.023-6.388-0.070l0.317 0.005c-2.367 0.080-5.15 0.126-7.943 0.126-31.154 0-60.982-5.679-88.505-16.057l1.728 0.572c-29.596-11.15-63.806-17.604-99.523-17.604-2.812 0-5.615 0.040-8.407 0.119l0.411-0.009h-37.547l80.64 183.893h737.707zM300.8 128c2.027 0.044 4.415 0.070 6.809 0.070 38.184 0 74.865-6.431 109.021-18.268l-2.337 0.705c27.357-9.763 58.916-15.406 91.793-15.406 1.779 0 3.555 0.017 5.326 0.049l-0.266-0.004c1.526-0.030 3.325-0.047 5.128-0.047 32.853 0 64.389 5.643 93.689 16.013l-1.964-0.606c31.798 11.133 68.457 17.564 106.618 17.564 2.418 0 4.829-0.026 7.234-0.077l-0.359 0.006c2.4 0.070 5.224 0.11 8.057 0.11 36.466 0 71.388-6.611 103.633-18.699l-2.037 0.669c15.557-6.006 33.711-10.644 52.551-13.098l1.209-0.129-37.12 85.333h-673.707l-37.12-85.333c20.191 2.55 38.495 7.19 55.84 13.778l-1.653-0.551c30.252 11.417 65.222 18.026 101.736 18.026 2.784 0 5.559-0.038 8.324-0.115l-0.407 0.009zM148.449 370.313l41.784 24.898 105.272-176.666-41.784-24.898-105.272 176.666zM720.065 218.912l108.030 176.496 41.486-25.393-108.030-176.496-41.486 25.393zM488.059 205.905l0.57 191.999 48.64-0.144-0.57-191.999-48.64 0.144z" />
<glyph unicode="&#xe924;" glyph-name="tea-and-coffee" d="M884.48-64h-856.32c-13.432 0-24.32 10.888-24.32 24.32v0c0 352.853 78.933 673.28 213.333 857.173 4.424 6.176 11.551 10.17 19.616 10.24h440.758c8.075-0.070 15.203-4.064 19.577-10.167l0.050-0.073c132.693-183.893 213.333-504.32 213.333-857.173 0-0.018 0-0.039 0-0.060 0-13.432-10.888-24.32-24.32-24.32-0.601 0-1.196 0.022-1.786 0.065l0.079-0.005zM52.907-15.36h807.253c-3.413 322.133-77.653 622.933-195.413 794.027h-416.427c-117.76-170.667-192-471.893-195.413-794.027zM973.227 465.067l-95.147 313.6h-229.973l25.173 132.693h-472.747l55.893-96-41.813-24.32-98.987 168.96h616.533l-25.173-132.267h207.36l105.813-348.16-46.933-14.507zM881.92 46.080h-850.773c-13.432 0-24.32 10.888-24.32 24.32s10.888 24.32 24.32 24.32h850.773c13.432 0 24.32-10.888 24.32-24.32s-10.888-24.32-24.32-24.32v0z" />
<glyph unicode="&#xe925;" glyph-name="toothbrush" d="M456.107 476.587l-352 301.227 151.893 182.187 352-301.227zM170.667 783.787l278.187-238.080 89.173 107.52-276.907 237.653zM201.084 726.232l120.165 144.791 37.429-31.063-120.165-144.791-37.429 31.063zM276.55 661.609l120.165 144.791 37.429-31.063-120.165-144.791-37.429 31.063zM352.771 596.713l120.165 144.791 37.429-31.063-120.165-144.791-37.429 31.063zM932.693-64c-0.087 0-0.191 0-0.295 0-23.063 0-44.166 8.394-60.42 22.294l0.128-0.106-841.813 722.347c-17.518 14.428-28.602 36.121-28.602 60.402 0 23.097 10.029 43.851 25.969 58.147l0.073 0.065c16.698 15.271 39.028 24.626 63.543 24.626 23.148 0 44.348-8.341 60.758-22.182l-0.141 0.116 841.813-722.773c17.373-14.426 28.354-36.029 28.354-60.198 0-22.98-9.927-43.641-25.727-57.929l-0.067-0.060c-16.536-15.337-38.757-24.748-63.176-24.748-0.14 0-0.279 0-0.418 0.001h0.022zM91.307 774.827c-0.333 0.009-0.724 0.015-1.117 0.015-11.296 0-21.566-4.389-29.199-11.556l0.023 0.021c-6.655-5.518-10.862-13.788-10.862-23.040s4.207-17.522 10.813-23l0.049-0.040 843.093-722.347c7.955-6.723 18.327-10.809 29.653-10.809s21.698 4.086 29.722 10.865l-0.068-0.056c6.297 5.65 10.24 13.813 10.24 22.898 0 0.050 0 0.1 0 0.15v-0.008c-0.358 9.308-4.749 17.524-11.463 22.995l-0.057 0.045-842.24 723.627c-7.41 6.37-17.122 10.248-27.74 10.248-0.298 0-0.595-0.003-0.891-0.009l0.044 0.001z" />
<glyph unicode="&#xe926;" glyph-name="tv" d="M1024 74.667h-1024v662.187h1024zM48.64 123.307h926.72v564.907h-926.72zM317.013-14.507h389.973v-48.64h-389.973v48.64zM512 688.213c-6.686 0.074-12.713 2.834-17.064 7.25l-229.55 229.55 33.28 34.987 213.333-213.333 213.333 213.333 34.56-34.56-230.827-229.973c-4.354-4.419-10.381-7.179-17.053-7.253h-0.014zM487.68 98.987h48.64v-138.24h-48.64v138.24z" />
<glyph unicode="&#xe927;" glyph-name="umbrella" d="M1024 421.547h-1024v24.32c0 282.77 229.23 512 512 512s512-229.23 512-512v0zM49.493 470.187h925.013c-13.298 245.213-215.377 439.015-462.72 439.015s-449.421-193.801-462.669-437.837l-0.051-1.177zM396.373-61.867c-77.526 0-140.373 62.847-140.373 140.373v0 78.933h48.64v-79.36c0-50.545 40.975-91.52 91.52-91.52s91.52 40.975 91.52 91.52v0 367.787h48.64v-367.36c0 0 0 0 0-0.001 0-77.376-62.604-140.13-139.923-140.373h-0.023z" />
<glyph unicode="&#xe928;" glyph-name="wifi" d="M512 40.533c-70.692 0-128 57.308-128 128s57.308 128 128 128c70.692 0 128-57.308 128-128v0c0-70.692-57.308-128-128-128v0zM512 248.32c-43.829 0-79.36-35.531-79.36-79.36s35.531-79.36 79.36-79.36c43.829 0 79.36 35.531 79.36 79.36v0c0 43.829-35.531 79.36-79.36 79.36v0zM788.053 408.32c-70.627 70.521-168.141 114.131-275.84 114.131s-205.213-43.611-275.845-114.136l0.005 0.005-34.987 34.56c79.557 79.701 189.54 129.007 311.040 129.007s231.483-49.306 311.033-129.001l0.007-0.007zM989.013 609.28c-122.215 121.78-290.821 197.073-477.013 197.073s-354.798-75.293-477.033-197.092l0.019 0.019-34.987 34.987c130.369 131.75 311.213 213.334 511.111 213.334 0.312 0 0.625 0 0.937-0.001h-0.048c0.264 0 0.576 0.001 0.889 0.001 199.898 0 380.741-81.584 511.049-213.271l0.062-0.063z" />
<glyph unicode="&#xe929;" glyph-name="youtube" d="M1006.507 679.68c-13.313 51.577-56.708 90.079-109.932 95.949l-0.575 0.051c-95.75 9.063-207.037 14.232-319.532 14.232-22.667 0-45.285-0.21-67.852-0.628l3.384 0.049c-19.173 0.368-41.781 0.578-64.438 0.578-112.506 0-223.805-5.168-333.672-15.279l14.11 1.048c-53.623-6.093-96.82-44.543-109.885-95.111l-0.195-0.889c-11.876-57.958-18.674-124.573-18.674-192.775 0-13.682 0.274-27.3 0.816-40.849l-0.062 1.944c-0.48-11.605-0.754-25.223-0.754-38.905 0-68.202 6.798-134.817 19.753-199.203l-1.079 6.428c13.26-51.457 56.457-89.907 109.492-95.946l0.588-0.054c95.756-9.063 207.048-14.231 319.547-14.231 22.663 0 45.277 0.21 67.84 0.627l-3.388-0.049c19.186-0.369 41.81-0.579 64.483-0.579 112.49 0 223.773 5.168 333.624 15.28l-14.108-1.049c53.905 5.981 97.345 44.671 110.315 95.541l0.192 0.886c11.642 57.39 18.305 123.357 18.305 190.88 0 14.199-0.295 28.329-0.878 42.385l0.066-2.012c0.525 12.14 0.824 26.382 0.824 40.694 0 67.561-6.668 133.565-19.381 197.389l1.064-6.402zM380.16 295.68v322.987l325.547-162.56z" />
</font>
</defs>
</svg>
