<svg id="Isolation_Mode" data-name="Isolation Mode" xmlns="http://www.w3.org/2000/svg" width="123" height="102.98" viewBox="0 0 123 102.98">
  <defs>
    <style>
      .cls-1, .cls-3, .cls-4 {
        fill: #21b1ac;
      }

      .cls-2, .cls-3 {
        opacity: 0.5;
      }

      .cls-4 {
        font-size: 6.1px;
        font-family: Muli-Light, Muli;
        letter-spacing: 0.04em;
      }

      .cls-5 {
        letter-spacing: -0.01em;
      }
    </style>
  </defs>
  <title>Artboard 1</title>
  <g>
    <g>
      <path class="cls-1" d="M20.42,75.38,15.71,89,14.62,89,10.21,76.61,5.86,89,4.71,89,0,75.38H1.18L5.28,87.73,9.64,75.38h1.2l4.35,12.37,4.08-12.37Z"/>
      <path class="cls-1" d="M33.58,89H32.52V80.75c0-3.12-1.23-4.68-3.67-4.68a5.37,5.37,0,0,0-4.19,2.13V89H23.57V68.13L24.66,68v9.14a5.74,5.74,0,0,1,4.35-2c3.15,0,4.57,2,4.57,5.17Z"/>
      <path class="cls-1" d="M38.7,71.25a.85.85,0,0,1-.88-.93.84.84,0,0,1,.9-.88.9.9,0,1,1,0,1.81ZM39.28,89H38.18V75.44l1.09-.11Z"/>
      <path class="cls-1" d="M50.53,88.74a5.85,5.85,0,0,1-2.44.55c-2.66,0-4-1.37-4-4.13V76.61H41.88v-.77l2.24-.14L44.34,73h.85v2.68H50l-.08.9H45.19V85c0,2.22,1,3.31,3,3.31a6.14,6.14,0,0,0,2.38-.52Z"/>
      <path class="cls-1" d="M64.1,88.27a9.43,9.43,0,0,1-4.16,1c-4.35,0-7-2.82-7-7.5a6.9,6.9,0,0,1,1.67-4.84,5.55,5.55,0,0,1,4.32-1.83c3.2,0,5.28,2.44,5.15,6.41H54c-.11,4.27,2.22,6.82,6,6.82a9.6,9.6,0,0,0,4.11-1ZM63,80.64c0-2.82-1.7-4.68-4.22-4.68a4.44,4.44,0,0,0-3.2,1.29,5,5,0,0,0-1.45,3.39Z"/>
      <path class="cls-1" d="M69.66,89h-1.4V68.1l1.4-.14Z"/>
      <path class="cls-1" d="M84.41,87.26a5.81,5.81,0,0,1-4.54,2,5.6,5.6,0,0,1-4.54-2.05A7.92,7.92,0,0,1,73.62,82a7.07,7.07,0,0,1,1.78-5,6,6,0,0,1,4.68-1.92A5.67,5.67,0,0,1,84.55,77a7.21,7.21,0,0,1,1.64,4.9A7.91,7.91,0,0,1,84.41,87.26Zm-.9-9.36a4.34,4.34,0,0,0-3.59-1.61c-3,0-4.87,2.3-4.87,5.61a7.2,7.2,0,0,0,1.31,4.35,4,4,0,0,0,3.45,1.83H80a4.12,4.12,0,0,0,3.42-1.72A7.09,7.09,0,0,0,84.77,82,6.39,6.39,0,0,0,83.51,77.9Z"/>
      <path class="cls-1" d="M96.86,88.71a5.42,5.42,0,0,1-2.46.58c-2.71,0-4.08-1.4-4.08-4.19V76.83H88.1v-1l2.22-.19.3-2.65h1.07v2.65h4.65l-.08,1.15H91.69V85c0,2.05.93,3.09,2.82,3.09a6.15,6.15,0,0,0,2.38-.52Z"/>
      <path class="cls-1" d="M100,75.41l1.4-.14v8a5.8,5.8,0,0,0,.93,3.72A3.39,3.39,0,0,0,105,88.06a5.16,5.16,0,0,0,3.94-2V75.41l1.4-.14V89L109,89.1V87.32a5.54,5.54,0,0,1-4.22,2c-3.2,0-4.79-1.86-4.79-5.61Z"/>
      <path class="cls-1" d="M121.8,88a4.89,4.89,0,0,1-3.61,1.23,8.68,8.68,0,0,1-3.86-.9l-.05-1.29a8.89,8.89,0,0,0,3.94,1c2.11,0,3.34-1.31,3.34-2.65,0-1.18-.88-2.08-2.63-2.68l-1.48-.49c-2-.68-3-1.83-3-3.48a3.42,3.42,0,0,1,1.15-2.49A4.83,4.83,0,0,1,119,75.11a8.31,8.31,0,0,1,3.48.68L122.37,77a8.65,8.65,0,0,0-3.34-.66c-2.11,0-3.23,1.12-3.23,2.33,0,1,.82,1.83,2.46,2.41l1.48.49c2.16.74,3.26,2,3.26,3.78A3.75,3.75,0,0,1,121.8,88Z"/>
    </g>
    <g>
      <g>
        <path class="cls-1" d="M65.94,6.38C62.41,1.87,62,0,62,0s-.36,1.87-3.9,6.38c-2.68,3.42-8,13.85,3.9,21.93C73.91,20.23,68.62,9.8,65.94,6.38Z"/>
        <path class="cls-1" d="M35.43,22.88c-5.38,2-7.27,1.74-7.27,1.74s1.67.92,4.86,5.68c2.42,3.6,10.71,11.86,22.06,3.07C51.07,19.58,39.51,21.39,35.43,22.88Z"/>
        <path class="cls-1" d="M41.7,57c.21,5.72-.6,7.45-.6,7.45s1.39-1.3,6.9-2.87c4.18-1.19,14.59-6.52,9.74-20C43.4,41.11,41.54,52.66,41.7,57Z"/>
        <path class="cls-1" d="M76.09,61.58c5.51,1.57,6.9,2.87,6.9,2.87s-.81-1.73-.6-7.45c.16-4.34-1.69-15.89-16-15.45C61.49,55.06,71.91,60.39,76.09,61.58Z"/>
        <path class="cls-1" d="M91.07,30.3c3.19-4.76,4.86-5.68,4.86-5.68s-1.89.24-7.27-1.73C84.58,21.39,73,19.58,69,33.37,80.36,42.16,88.65,33.9,91.07,30.3Z"/>
        <g class="cls-2">
          <path class="cls-1" d="M62,64.13c-4.83-5.68-2.5-11.23-.89-14.55a8.79,8.79,0,0,0,.89-3,8.79,8.79,0,0,0,.89,3C64.55,52.9,66.88,58.45,62,64.13Z"/>
          <path class="cls-1" d="M34.83,44.35C38.74,38,44.74,38.5,48.39,39a8.79,8.79,0,0,0,3.17-.09,8.79,8.79,0,0,0-2.61,1.79C46.28,43.26,41.73,47.19,34.83,44.35Z"/>
          <path class="cls-1" d="M45.22,12.35C52.47,14.11,53.85,20,54.5,23.6a8.79,8.79,0,0,0,1.06,3,8.79,8.79,0,0,0-2.51-1.93C49.8,22.91,44.65,19.79,45.22,12.35Z"/>
          <path class="cls-1" d="M78.87,12.35c.57,7.44-4.58,10.56-7.83,12.3a8.79,8.79,0,0,0-2.51,1.93,8.79,8.79,0,0,0,1.06-3C70.24,20,71.62,14.11,78.87,12.35Z"/>
          <path class="cls-1" d="M89.27,44.35c-6.9,2.84-11.46-1.09-14.11-3.65a8.79,8.79,0,0,0-2.61-1.79,8.79,8.79,0,0,0,3.17.09C79.36,38.5,85.35,38,89.27,44.35Z"/>
        </g>
      </g>
      <path class="cls-3" d="M65.17,35.55A2.28,2.28,0,0,1,64.34,33l.59-1.82-1.55,1.12a2.28,2.28,0,0,1-2.68,0l-1.55-1.12L59.75,33a2.28,2.28,0,0,1-.83,2.55l-1.55,1.12h1.91a2.28,2.28,0,0,1,2.17,1.57L62,40.07l.59-1.82a2.28,2.28,0,0,1,2.17-1.57h1.91ZM62,36.93a1.81,1.81,0,1,1,1.81-1.81A1.81,1.81,0,0,1,62,36.93Z"/>
    </g>
  </g>
  <text class="cls-4" transform="translate(51.12 101.31)">H<tspan class="cls-5" x="4.89" y="0">O</tspan><tspan x="9.53" y="0">TEL</tspan></text>
</svg>
