<svg id="Isolation_Mode" data-name="Isolation Mode" xmlns="http://www.w3.org/2000/svg" width="135" height="111.28" viewBox="0 0 135 111.28">
  <defs>
    <style>
      .cls-1, .cls-3 {
        fill: #fff;
      }

      .cls-2, .cls-3 {
        opacity: 0.5;
      }
    </style>
  </defs>
  <title>Artboard 1</title>
  <g>
    <g>
      <g>
        <path class="cls-1" d="M22.41,82.74,17.24,97.67l-1.2.06L11.21,84.09,6.43,97.67l-1.26.06L0,82.74H1.29L5.8,96.29l4.78-13.55H11.9l4.78,13.58,4.48-13.58Z"/>
        <path class="cls-1" d="M36.86,97.7H35.69V88.63c0-3.42-1.35-5.14-4-5.14a5.89,5.89,0,0,0-4.6,2.34V97.7h-1.2V74.78l1.2-.12v10a6.3,6.3,0,0,1,4.78-2.22c3.45,0,5,2.16,5,5.68Z"/>
        <path class="cls-1" d="M42.48,78.2a.93.93,0,0,1-1-1,.92.92,0,0,1,1-1,1,1,0,1,1,0,2Zm.63,19.5h-1.2V82.8l1.2-.12Z"/>
        <path class="cls-1" d="M55.45,97.4a6.42,6.42,0,0,1-2.67.6c-2.91,0-4.36-1.5-4.36-4.54V84.09H46v-.84l2.46-.15.24-2.94h.93V83.1h5.23l-.09,1H49.6v9.25c0,2.43,1.08,3.63,3.28,3.63a6.74,6.74,0,0,0,2.61-.57Z"/>
        <path class="cls-1" d="M70.35,96.89A10.35,10.35,0,0,1,65.79,98C61,98,58.1,94.9,58.1,89.77a7.58,7.58,0,0,1,1.83-5.32,6.09,6.09,0,0,1,4.75-2c3.51,0,5.8,2.67,5.65,7h-11c-.12,4.69,2.43,7.48,6.61,7.48a10.54,10.54,0,0,0,4.51-1.08ZM69.09,88.5c0-3.09-1.86-5.14-4.63-5.14A4.88,4.88,0,0,0,61,84.78a5.46,5.46,0,0,0-1.59,3.73Z"/>
        <path class="cls-1" d="M76.45,97.7H74.92v-23l1.53-.15Z"/>
        <path class="cls-1" d="M92.64,95.78a6.37,6.37,0,0,1-5,2.22,6.14,6.14,0,0,1-5-2.25A8.69,8.69,0,0,1,80.81,90a7.76,7.76,0,0,1,2-5.47,6.62,6.62,0,0,1,5.14-2.1,6.23,6.23,0,0,1,4.9,2.07,7.92,7.92,0,0,1,1.8,5.38A8.68,8.68,0,0,1,92.64,95.78Zm-1-10.27a4.76,4.76,0,0,0-3.94-1.77c-3.33,0-5.35,2.52-5.35,6.16a7.9,7.9,0,0,0,1.44,4.78,4.36,4.36,0,0,0,3.79,2h.24a4.52,4.52,0,0,0,3.76-1.89A7.78,7.78,0,0,0,93,89.95,7,7,0,0,0,91.65,85.5Z"/>
        <path class="cls-1" d="M106.31,97.37a6,6,0,0,1-2.7.63c-3,0-4.48-1.53-4.48-4.6V84.33H96.7V83.28l2.43-.21.33-2.91h1.17v2.91h5.11l-.09,1.26h-5v9c0,2.25,1,3.4,3.09,3.4a6.75,6.75,0,0,0,2.61-.57Z"/>
        <path class="cls-1" d="M109.74,82.77l1.53-.15v8.74a6.37,6.37,0,0,0,1,4.09,3.72,3.72,0,0,0,2.91,1.2,5.67,5.67,0,0,0,4.33-2.19V82.77l1.53-.15v15l-1.44.15v-2A6.08,6.08,0,0,1,115,98c-3.52,0-5.26-2-5.26-6.16Z"/>
        <path class="cls-1" d="M133.68,96.62a5.37,5.37,0,0,1-4,1.35,9.53,9.53,0,0,1-4.24-1l-.06-1.41a9.75,9.75,0,0,0,4.33,1.05c2.31,0,3.67-1.44,3.67-2.91,0-1.29-1-2.28-2.88-2.95l-1.62-.54c-2.22-.75-3.33-2-3.33-3.82a3.75,3.75,0,0,1,1.26-2.73,5.3,5.3,0,0,1,3.82-1.23,9.12,9.12,0,0,1,3.82.75l-.15,1.29a9.49,9.49,0,0,0-3.67-.72c-2.31,0-3.55,1.23-3.55,2.55,0,1.14.9,2,2.7,2.64l1.62.54c2.37.81,3.57,2.19,3.57,4.15A4.11,4.11,0,0,1,133.68,96.62Z"/>
      </g>
      <g>
        <path class="cls-1" d="M23.71,108.78h0a2.44,2.44,0,0,1,2.43-2.51A2.55,2.55,0,0,1,28,107l-.26.26a2.23,2.23,0,0,0-1.64-.72,2.08,2.08,0,0,0-2,2.17h0A2.1,2.1,0,0,0,26.14,111a2.2,2.2,0,0,0,1.67-.76l.24.24a2.6,2.6,0,0,1-1.93.85A2.41,2.41,0,0,1,23.71,108.78Z"/>
        <path class="cls-1" d="M29.36,108.78h0a2.45,2.45,0,1,1,4.89,0s0,0,0,0a2.45,2.45,0,1,1-4.89,0Zm4.51,0h0a2.1,2.1,0,0,0-2.08-2.19,2.08,2.08,0,0,0-2.06,2.17h0A2.1,2.1,0,0,0,31.81,111,2.08,2.08,0,0,0,33.87,108.78Z"/>
        <path class="cls-1" d="M36,106.33h.34l3.35,4.23v-4.23H40v4.86h-.27l-3.42-4.32v4.32H36Z"/>
        <path class="cls-1" d="M41.59,106.33H42l1.9,4.47,1.91-4.47h.38l-2.14,4.9h-.32Z"/>
        <path class="cls-1" d="M47.74,106.33H51.2v.33H48.1v1.91h2.79v.33H48.1v2h3.13v.33H47.74Z"/>
        <path class="cls-1" d="M52.92,106.33h.34l3.35,4.23v-4.23H57v4.86h-.27l-3.42-4.32v4.32h-.35Z"/>
        <path class="cls-1" d="M60.27,106.67H58.58v-.33h3.75v.33H60.64v4.53h-.36Z"/>
        <path class="cls-1" d="M64,106.33h.36v4.86H64Z"/>
        <path class="cls-1" d="M66.16,108.78h0a2.45,2.45,0,1,1,4.89,0s0,0,0,0a2.45,2.45,0,1,1-4.89,0Zm4.51,0h0a2.1,2.1,0,0,0-2.08-2.19,2.08,2.08,0,0,0-2.06,2.17h0A2.1,2.1,0,0,0,68.61,111,2.08,2.08,0,0,0,70.67,108.78Z"/>
        <path class="cls-1" d="M72.8,106.33h.34l3.35,4.23v-4.23h.35v4.86h-.27l-3.42-4.32v4.32H72.8Z"/>
        <path class="cls-1" d="M80.86,108.78h0a2.44,2.44,0,0,1,2.43-2.51,2.55,2.55,0,0,1,1.89.78l-.26.26a2.23,2.23,0,0,0-1.64-.72,2.08,2.08,0,0,0-2,2.17h0A2.1,2.1,0,0,0,83.29,111,2.2,2.2,0,0,0,85,110.2l.24.24a2.6,2.6,0,0,1-1.93.85A2.41,2.41,0,0,1,80.86,108.78Z"/>
        <path class="cls-1" d="M86.72,106.33h3.46v.33h-3.1v1.91h2.79v.33H87.08v2h3.13v.33H86.72Z"/>
        <path class="cls-1" d="M91.89,106.33h.34l3.35,4.23v-4.23h.35v4.86h-.27l-3.42-4.32v4.32h-.35Z"/>
        <path class="cls-1" d="M99.25,106.67H97.56v-.33h3.75v.33H99.61v4.53h-.36Z"/>
        <path class="cls-1" d="M102.93,106.33h3.46v.33h-3.1v1.91h2.79v.33h-2.79v2h3.13v.33h-3.49Z"/>
        <path class="cls-1" d="M108.1,106.33h2a1.88,1.88,0,0,1,1.37.48,1.27,1.27,0,0,1,.37.9h0c0,.81-.61,1.28-1.42,1.39l1.6,2.08h-.46l-1.55-2h-1.59v2h-.36Zm2,2.52c.81,0,1.42-.42,1.42-1.11h0c0-.66-.51-1.06-1.4-1.06h-1.66v2.19Z"/>
      </g>
    </g>
    <g>
      <g>
        <path class="cls-1" d="M72.38,7C68.49,2.06,68.1,0,68.1,0s-.4,2.06-4.28,7c-2.94,3.75-8.75,15.21,4.28,24.07C81.13,22.21,75.32,10.75,72.38,7Z"/>
        <path class="cls-1" d="M38.89,25.12c-5.9,2.16-8,1.9-8,1.9s1.83,1,5.34,6.23c2.66,4,11.76,13,24.22,3.37C56.05,21.49,43.36,23.48,38.89,25.12Z"/>
        <path class="cls-1" d="M45.77,62.56c.23,6.28-.66,8.18-.66,8.18s1.53-1.43,7.58-3.15c4.58-1.3,16-7.16,10.69-22C47.63,45.12,45.59,57.8,45.77,62.56Z"/>
        <path class="cls-1" d="M83.51,67.59c6,1.72,7.58,3.15,7.58,3.15s-.89-1.9-.66-8.18c.18-4.76-1.86-17.44-17.61-17C67.49,60.43,78.92,66.29,83.51,67.59Z"/>
        <path class="cls-1" d="M100,33.25c3.5-5.22,5.34-6.23,5.34-6.23s-2.08.26-8-1.9c-4.47-1.64-17.16-3.62-21.57,11.51C88.19,46.27,97.3,37.21,100,33.25Z"/>
        <g class="cls-2">
          <path class="cls-1" d="M68.1,70.39c-5.3-6.24-2.75-12.33-1-16a9.65,9.65,0,0,0,1-3.34,9.64,9.64,0,0,0,1,3.34C70.85,58.06,73.4,64.15,68.1,70.39Z"/>
          <path class="cls-1" d="M38.22,48.68c4.3-7,10.88-6.42,14.88-5.87a9.65,9.65,0,0,0,3.48-.1,9.64,9.64,0,0,0-2.87,2C50.8,47.48,45.8,51.8,38.22,48.68Z"/>
          <path class="cls-1" d="M49.63,13.56c8,1.93,9.47,8.36,10.18,12.34A9.65,9.65,0,0,0,61,29.18a9.64,9.64,0,0,0-2.75-2.12C54.66,25.15,49,21.72,49.63,13.56Z"/>
          <path class="cls-1" d="M86.56,13.56c.62,8.17-5,11.59-8.59,13.5a9.65,9.65,0,0,0-2.75,2.12,9.64,9.64,0,0,0,1.17-3.27C77.09,21.92,78.61,15.49,86.56,13.56Z"/>
          <path class="cls-1" d="M98,48.68c-7.57,3.12-12.58-1.2-15.49-4a9.65,9.65,0,0,0-2.87-2,9.64,9.64,0,0,0,3.48.1C87.1,42.26,93.68,41.71,98,48.68Z"/>
        </g>
      </g>
      <path class="cls-3" d="M71.53,39a2.5,2.5,0,0,1-.91-2.79l.65-2-1.7,1.23a2.5,2.5,0,0,1-2.94,0l-1.7-1.23.65,2A2.5,2.5,0,0,1,64.67,39L63,40.25h2.1A2.5,2.5,0,0,1,67.45,42l.65,2,.65-2a2.5,2.5,0,0,1,2.38-1.73h2.1ZM68.1,40.53a2,2,0,1,1,2-2A2,2,0,0,1,68.1,40.53Z"/>
    </g>
  </g>
</svg>
