<svg id="Layer_1" data-name="Layer 1" xmlns="http://www.w3.org/2000/svg" width="178" height="172.01" viewBox="0 0 178 172.01">
  <defs>
    <style>
      .cls-1 {
        fill: #1fb0ab;
      }
    </style>
  </defs>
  <title>logo_bg_2.svg</title>
  <path class="cls-1" d="M99.24,17C89.95,5,89,0,89,0s-.95,5-10.24,17c-7,9.12-20.94,37,10.24,58.54C120.18,54,106.28,26.14,99.24,17Z"/>
  <path class="cls-1" d="M19.1,61.07C5,66.33,0,65.7,0,65.7s4.38,2.46,12.77,15.15c6.36,9.62,28.14,31.66,58,8.2C60.18,52.27,29.81,57.09,19.1,61.07Z"/>
  <path class="cls-1" d="M35.56,152.12C36.12,167.4,34,172,34,172s3.66-3.48,18.13-7.66c11-3.17,38.33-17.41,25.58-53.47C40,109.71,35.14,140.55,35.56,152.12Z"/>
  <path class="cls-1" d="M125.88,164.35C140.35,168.53,144,172,144,172s-2.13-4.61-1.57-19.89c.42-11.58-4.45-42.41-42.14-41.24C87.55,146.94,114.91,161.18,125.88,164.35Z"/>
  <path class="cls-1" d="M165.23,80.85C173.62,68.16,178,65.7,178,65.7s-5,.63-19.1-4.63c-10.71-4-41.08-8.81-51.63,28C137.09,112.51,158.88,90.47,165.23,80.85Z"/>
  <path class="cls-1" d="M89,124.21a23.77,23.77,0,0,1-2.35,8.11C82.43,141.17,76.31,156,89,171.15c12.69-15.17,6.58-30,2.35-38.83A23.7,23.7,0,0,1,89,124.21"/>
  <path class="cls-1" d="M44.2,103.37c-8.8,0-19.2,2.64-26.69,15A31.66,31.66,0,0,0,29.79,121c11.43,0,19.53-7.22,24.79-12.37a23,23,0,0,1,6.87-4.77,19.87,19.87,0,0,1-4.71.49,25.85,25.85,0,0,1-3.61-.25,63.44,63.44,0,0,0-8.92-.73"/>
  <path class="cls-1" d="M44.81,33c-1.49,19.85,12,28.18,20.56,32.81A23.17,23.17,0,0,1,72,70.94a23.7,23.7,0,0,1-2.79-8c-1.7-9.69-5.32-25.32-24.36-30"/>
  <path class="cls-1" d="M133.19,33c-19,4.69-22.66,20.33-24.36,30a23.6,23.6,0,0,1-2.79,8,23.19,23.19,0,0,1,6.59-5.16c8.54-4.64,22.05-13,20.56-32.81"/>
  <path class="cls-1" d="M133.81,103.37a63.45,63.45,0,0,0-8.93.73,25.88,25.88,0,0,1-3.61.25,19.82,19.82,0,0,1-4.7-.49,23.1,23.1,0,0,1,6.87,4.77c5.26,5.14,13.35,12.37,24.79,12.37a31.68,31.68,0,0,0,12.28-2.63c-7.49-12.36-17.89-15-26.69-15"/>
</svg>
