<svg id="Layer_1" data-name="Layer 1" xmlns="http://www.w3.org/2000/svg" width="277.5" height="268" viewBox="0 0 277.5 268">
  <defs>
    <style>
      .cls-1 {
        fill: #e9f6f7;
      }
    </style>
  </defs>
  <title>logo_bg</title>
  <path class="cls-1" d="M154.71,26.53C140.23,7.79,138.75,0,138.75,0s-1.48,7.79-16,26.53c-11,14.2-32.64,57.61,16,91.2C187.35,84.13,165.69,40.73,154.71,26.53Z"/>
  <path class="cls-1" d="M29.77,95.15C7.75,103.35,0,102.37,0,102.37S6.84,106.2,19.91,126c9.91,15,43.87,49.32,90.34,12.77C93.82,81.43,46.47,88.94,29.77,95.15Z"/>
  <path class="cls-1" d="M55.44,237c.87,23.81-2.44,31-2.44,31s5.7-5.42,28.26-11.93c17.1-4.94,59.75-27.12,39.88-83.31C62.38,170.93,54.79,219,55.44,237Z"/>
  <path class="cls-1" d="M196.24,256.07c22.57,6.52,28.27,11.93,28.27,11.93s-3.32-7.18-2.45-31c.66-18-6.94-66.08-65.7-64.26C136.49,228.94,179.14,251.13,196.24,256.07Z"/>
  <path class="cls-1" d="M257.59,126c13.07-19.78,19.91-23.61,19.91-23.61s-7.75,1-29.78-7.21c-16.69-6.21-64-13.72-80.48,43.59C213.73,175.3,247.68,141,257.59,126Z"/>
  <path class="cls-1" d="M138.75,193.53a37,37,0,0,1-3.66,12.64C128.5,220,119,243,138.75,266.66,158.54,243,149,220,142.42,206.17a36.9,36.9,0,0,1-3.66-12.64"/>
  <path class="cls-1" d="M68.9,161.06c-13.72,0-29.93,4.12-41.62,23.37a49.39,49.39,0,0,0,19.15,4.1c17.82,0,30.45-11.25,38.65-19.27a35.93,35.93,0,0,1,10.7-7.44,31,31,0,0,1-7.34.77,40.23,40.23,0,0,1-5.63-.4,99,99,0,0,0-13.91-1.14"/>
  <path class="cls-1" d="M69.86,51.37C67.54,82.3,88.61,95.28,101.92,102.5a36.13,36.13,0,0,1,10.27,8,36.92,36.92,0,0,1-4.35-12.4c-2.65-15.09-8.29-39.45-38-46.76"/>
  <path class="cls-1" d="M207.64,51.37C178,58.68,172.31,83,169.66,98.13a36.75,36.75,0,0,1-4.36,12.4,36.16,36.16,0,0,1,10.28-8C188.9,95.27,210,82.3,207.64,51.37"/>
  <path class="cls-1" d="M208.6,161.06a99,99,0,0,0-13.91,1.14,40.28,40.28,0,0,1-5.63.4,30.93,30.93,0,0,1-7.33-.77,36,36,0,0,1,10.7,7.44c8.2,8,20.82,19.27,38.64,19.27a49.41,49.41,0,0,0,19.15-4.1c-11.68-19.25-27.89-23.37-41.61-23.37"/>
</svg>
