<svg id="Layer_1" data-name="Layer 1" xmlns="http://www.w3.org/2000/svg" width="53.96" height="35" viewBox="0 0 53.96 35">
  <defs>
    <style>
      .cls-1, .cls-2 {
        fill: #00a680;
      }

      .cls-2 {
        opacity: 0.5;
        isolation: isolate;
      }

      .cls-3 {
        fill: none;
      }

      .cls-4 {
        fill: #18191a;
      }

      .cls-5 {
        fill: #fbc600;
      }

      .cls-6 {
        fill: #fff;
      }

      .cls-7 {
        fill: #ea603c;
      }

      .cls-8 {
        fill: #00a77e;
      }
    </style>
  </defs>
  <title>tripadvisor_logo</title>
  <g>
    <g>
      <path class="cls-1" d="M34.23,25.48a.69.69,0,1,0,.69-.69.7.7,0,0,0-.69.69"/>
      <path class="cls-1" d="M20.45,30.37A1.44,1.44,0,0,1,19,32a.89.89,0,0,1-.94-.89c0-.69.66-1.06,1.83-1.06h.57v.34Zm-1-3.37a4.33,4.33,0,0,0-1.86.4l0,0v1l.09-.06a3.28,3.28,0,0,1,1.49-.46,1.16,1.16,0,0,1,1.29,1.29v.06h-.66c-1.86,0-2.89.69-2.89,1.92a1.68,1.68,0,0,0,1.8,1.69,2.2,2.2,0,0,0,1.83-.89v.8h1v-3.4c0-1.57-.69-2.34-2.09-2.34"/>
      <path class="cls-1" d="M24.91,31.85c-.86,0-1.4-.74-1.4-2s.54-2,1.37-2,1.49.74,1.49,2-.57,2-1.46,2m1.46-7.41v3.43A2.08,2.08,0,0,0,24.62,27c-1.4,0-2.32,1.14-2.32,2.83s.94,3,2.29,3a2,2,0,0,0,1.86-1.06v1h1.06V24.45H26.36Z"/>
      <polygon class="cls-1" points="32.6 27.11 30.97 30.34 29.48 27.11 28.19 27.11 30.94 32.71 33.77 27.11 32.6 27.11"/>
      <polygon class="cls-1" points="35.43 27.11 34.34 27.11 34.34 32.71 35.49 32.71 35.49 27.11 35.43 27.11"/>
      <path class="cls-1" d="M36.83,28.57c0,.8.54,1.2,1.54,1.69.63.31,1,.49,1,.92s-.4.74-1,.74a3,3,0,0,1-1.43-.37l-.09,0,0,1,0,0a4.27,4.27,0,0,0,1.46.29c1.4,0,2.29-.66,2.29-1.69,0-.86-.57-1.29-1.54-1.74-.71-.34-1-.54-1-.89s.34-.57.86-.57a3.42,3.42,0,0,1,1.37.31l.09,0,.06-1-.06,0a4.69,4.69,0,0,0-1.37-.2c-1.29,0-2.09.6-2.09,1.52"/>
      <path class="cls-1" d="M44.09,31.91c-.94,0-1.57-.8-1.57-2s.63-2,1.57-2,1.57.8,1.57,2-.63,2-1.57,2m0-4.92a2.65,2.65,0,0,0-2.77,2.95,2.78,2.78,0,1,0,5.55,0A2.63,2.63,0,0,0,44.06,27"/>
      <path class="cls-1" d="M49,28v-.92h-1v5.6h1.14v-2.8c0-1.17.49-1.83,1.4-1.83a1.93,1.93,0,0,1,.4.06l.09,0,0-1.12-.49,0A1.64,1.64,0,0,0,49,28"/>
      <path class="cls-2" d="M52.81,27.48h.11c.14,0,.2-.06.2-.14s-.06-.14-.23-.14h-.09v.29ZM53,27c.31,0,.49.11.49.31a.33.33,0,0,1-.23.31l.26.49h-.34l-.2-.43h-.09v.43H52.5V27H53Zm-.6,0a.82.82,0,0,0-.26.6.8.8,0,0,0,.23.57.82.82,0,0,0,.6.26.92.92,0,0,0,.6-.23.78.78,0,0,0,.26-.6.8.8,0,0,0-.23-.57.82.82,0,0,0-.6-.26.65.65,0,0,0-.6.23m1.32-.11a1,1,0,0,1,.29.71.93.93,0,0,1-.31.71,1,1,0,0,1-.71.29,1,1,0,0,1-.71-.31,1,1,0,0,1-.29-.71,1.09,1.09,0,0,1,.31-.74,1,1,0,0,1,.71-.29,1.2,1.2,0,0,1,.71.34"/>
    </g>
    <g>
      <path class="cls-3" d="M18.3,4.78a6.79,6.79,0,1,0,6.78,6.81A6.82,6.82,0,0,0,18.3,4.78Z"/>
      <path class="cls-3" d="M32.31,3.63A8.78,8.78,0,0,1,35,3.12a20.07,20.07,0,0,0-8.24-1.63,21.18,21.18,0,0,0-8.26,1.6A8.5,8.5,0,0,1,26.79,11a8.78,8.78,0,0,1,.74-2.92A8.36,8.36,0,0,1,32.31,3.63Z"/>
      <path class="cls-3" d="M32.91,5.23a6.67,6.67,0,0,0-3.8,3.52,6.84,6.84,0,0,0-.2,5.2h0A6.8,6.8,0,0,0,41.66,9.24,6.86,6.86,0,0,0,32.91,5.23Z"/>
      <path class="cls-4" d="M43.24,8.66a8.85,8.85,0,0,0-1.14-2.12,10.65,10.65,0,0,1,1.69-3.4H38.09A20.68,20.68,0,0,0,26.74,0,21.11,21.11,0,0,0,15.1,3.2H9.78a10.94,10.94,0,0,1,1.66,3.37A8.5,8.5,0,0,0,24.93,16.9l1.8,2.72,1.83-2.75A8.51,8.51,0,0,0,43.24,8.66ZM18.3,18.36a6.79,6.79,0,1,1,6.78-6.78A6.8,6.8,0,0,1,18.3,18.36ZM26.79,11A8.5,8.5,0,0,0,18.5,3.06a21.18,21.18,0,0,1,8.26-1.6A20,20,0,0,1,35,3.09a8.94,8.94,0,0,0-2.69.51A8.28,8.28,0,0,0,27.54,8,8.14,8.14,0,0,0,26.79,11Zm10.84,7a6.84,6.84,0,0,1-5.2-.2A6.75,6.75,0,0,1,28.91,14h0a6.84,6.84,0,0,1,.2-5.2A6.78,6.78,0,1,1,37.63,18Z"/>
    </g>
    <path class="cls-4" d="M2.17,25.42l-1,.34v1.34H0V28H1.12v2.89c0,1.37.46,1.92,1.6,1.92a3,3,0,0,0,.86-.11h.06v-.92l-.09,0a1.53,1.53,0,0,1-.54.11c-.54,0-.74-.31-.74-1.12V28H3.57v-.89H2.26V25.42Z"/>
    <path class="cls-4" d="M5.69,28v-.92h-1v5.6H5.8v-2.8c0-1.17.49-1.83,1.4-1.83a1.93,1.93,0,0,1,.4.06l.09,0,0-1.12-.49,0a1.69,1.69,0,0,0-1.54,1"/>
    <path class="cls-4" d="M13.5,31.88c-.89,0-1.46-.77-1.46-2s.6-1.94,1.49-1.94,1.4.71,1.4,1.94-.54,2-1.43,2M13.81,27A2.17,2.17,0,0,0,12,28v-.92h-1V35h1.14V31.94a2.09,2.09,0,0,0,1.74.86c1.43,0,2.37-1.17,2.37-3s-1-2.8-2.37-2.8"/>
    <polygon class="cls-4" points="9.75 27.11 8.66 27.11 8.66 32.71 9.81 32.71 9.81 27.11 9.75 27.11"/>
    <path class="cls-4" d="M8.55,25.48a.69.69,0,1,0,.69-.69.7.7,0,0,0-.69.69"/>
    <path class="cls-5" d="M32.31,3.63A8.78,8.78,0,0,1,35,3.12a20.07,20.07,0,0,0-8.24-1.63,21.18,21.18,0,0,0-8.26,1.6A8.5,8.5,0,0,1,26.79,11a8.78,8.78,0,0,1,.74-2.92A8.36,8.36,0,0,1,32.31,3.63Z"/>
    <path class="cls-6" d="M32.91,5.23a6.67,6.67,0,0,0-3.8,3.52,6.84,6.84,0,0,0-.2,5.2h0A6.8,6.8,0,0,0,41.66,9.24,6.86,6.86,0,0,0,32.91,5.23ZM35.26,15.7a4.2,4.2,0,1,1,4.2-4.2A4.21,4.21,0,0,1,35.26,15.7Z"/>
    <path class="cls-6" d="M35.26,8.75A2.75,2.75,0,1,0,38,11.5,2.75,2.75,0,0,0,35.26,8.75Zm0,4.17a1.4,1.4,0,1,1,1.4-1.4A1.42,1.42,0,0,1,35.26,12.92Z"/>
    <path class="cls-6" d="M18.21,8.75A2.75,2.75,0,1,0,21,11.5,2.75,2.75,0,0,0,18.21,8.75Zm0,4.17a1.43,1.43,0,0,1-1.43-1.4,1.42,1.42,0,1,1,1.43,1.4Z"/>
    <path class="cls-6" d="M18.3,4.78a6.79,6.79,0,1,0,6.78,6.81A6.82,6.82,0,0,0,18.3,4.78ZM18.21,15.7a4.2,4.2,0,1,1,4.2-4.2A4.21,4.21,0,0,1,18.21,15.7Z"/>
    <path class="cls-7" d="M18.21,10.09a1.43,1.43,0,0,0-1.43,1.4,1.42,1.42,0,1,0,1.43-1.4Z"/>
    <path class="cls-8" d="M35.26,10.09a1.4,1.4,0,1,0,1.4,1.4A1.4,1.4,0,0,0,35.26,10.09Z"/>
    <path class="cls-3" d="M32.31,3.63A8.78,8.78,0,0,1,35,3.12a20.07,20.07,0,0,0-8.24-1.63,21.18,21.18,0,0,0-8.26,1.6A8.5,8.5,0,0,1,26.79,11a8.78,8.78,0,0,1,.74-2.92A8.36,8.36,0,0,1,32.31,3.63Z"/>
    <path class="cls-3" d="M18.3,4.78a6.79,6.79,0,1,0,6.78,6.81A6.82,6.82,0,0,0,18.3,4.78Z"/>
    <path class="cls-3" d="M32.91,5.23a6.67,6.67,0,0,0-3.8,3.52,6.84,6.84,0,0,0-.2,5.2h0A6.8,6.8,0,0,0,41.66,9.24,6.86,6.86,0,0,0,32.91,5.23Z"/>
    <path class="cls-4" d="M18.21,7.29a4.2,4.2,0,1,0,4.2,4.2A4.21,4.21,0,0,0,18.21,7.29Zm0,7A2.75,2.75,0,1,1,21,11.52,2.75,2.75,0,0,1,18.21,14.27Z"/>
    <path class="cls-4" d="M35.26,7.29a4.2,4.2,0,1,0,4.2,4.2A4.21,4.21,0,0,0,35.26,7.29Zm0,7A2.75,2.75,0,1,1,38,11.52,2.75,2.75,0,0,1,35.26,14.27Z"/>
    <path class="cls-4" d="M46.09,3.72h.11c.14,0,.2-.06.2-.14s-.06-.14-.2-.14h-.09v.29Zm.14-.46c.31,0,.46.11.46.31a.28.28,0,0,1-.23.29l.23.49h-.31l-.2-.43h-.09v.43h-.29V3.26Zm-.57,0a.77.77,0,0,0-.23.57.91.91,0,0,0,.23.57.76.76,0,0,0,.57.26.85.85,0,0,0,.57-.23.83.83,0,0,0,0-1.14A.72.72,0,0,0,46.24,3a.8.8,0,0,0-.57.23M47,3.12a1,1,0,0,1,.29.69,1.07,1.07,0,0,1-.29.71,1.06,1.06,0,0,1-.69.29,1,1,0,0,1-.71-.31,1.06,1.06,0,0,1-.29-.69,1.13,1.13,0,0,1,.29-.71,1.06,1.06,0,0,1,.69-.29,1.16,1.16,0,0,1,.71.31"/>
    <g>
      <path class="cls-3" d="M18.3,4.78a6.79,6.79,0,1,0,6.78,6.81A6.82,6.82,0,0,0,18.3,4.78Z"/>
      <path class="cls-3" d="M32.31,3.63A8.78,8.78,0,0,1,35,3.12a20.07,20.07,0,0,0-8.24-1.63,21.18,21.18,0,0,0-8.26,1.6A8.5,8.5,0,0,1,26.79,11a8.78,8.78,0,0,1,.74-2.92A8.36,8.36,0,0,1,32.31,3.63Z"/>
      <path class="cls-3" d="M32.91,5.23a6.67,6.67,0,0,0-3.8,3.52,6.84,6.84,0,0,0-.2,5.2h0A6.8,6.8,0,0,0,41.66,9.24,6.86,6.86,0,0,0,32.91,5.23Z"/>
      <path class="cls-4" d="M43.24,8.66a8.85,8.85,0,0,0-1.14-2.12,10.65,10.65,0,0,1,1.69-3.4H38.09A20.68,20.68,0,0,0,26.74,0,21.11,21.11,0,0,0,15.1,3.2H9.78a10.94,10.94,0,0,1,1.66,3.37A8.5,8.5,0,0,0,24.93,16.9l1.8,2.72,1.83-2.75A8.51,8.51,0,0,0,43.24,8.66ZM18.3,18.36a6.79,6.79,0,1,1,6.78-6.78A6.8,6.8,0,0,1,18.3,18.36ZM26.79,11A8.5,8.5,0,0,0,18.5,3.06a21.18,21.18,0,0,1,8.26-1.6A20,20,0,0,1,35,3.09a8.94,8.94,0,0,0-2.69.51A8.28,8.28,0,0,0,27.54,8,8.14,8.14,0,0,0,26.79,11Zm10.84,7a6.84,6.84,0,0,1-5.2-.2A6.75,6.75,0,0,1,28.91,14h0a6.84,6.84,0,0,1,.2-5.2A6.78,6.78,0,1,1,37.63,18Z"/>
    </g>
    <path class="cls-4" d="M2.17,25.42l-1,.34v1.34H0V28H1.12v2.89c0,1.37.46,1.92,1.6,1.92a3,3,0,0,0,.86-.11h.06v-.92l-.09,0a1.53,1.53,0,0,1-.54.11c-.54,0-.74-.31-.74-1.12V28H3.57v-.89H2.26V25.42Z"/>
    <path class="cls-4" d="M5.69,28v-.92h-1v5.6H5.8v-2.8c0-1.17.49-1.83,1.4-1.83a1.93,1.93,0,0,1,.4.06l.09,0,0-1.12-.49,0a1.69,1.69,0,0,0-1.54,1"/>
    <path class="cls-4" d="M13.5,31.88c-.89,0-1.46-.77-1.46-2s.6-1.94,1.49-1.94,1.4.71,1.4,1.94-.54,2-1.43,2M13.81,27A2.17,2.17,0,0,0,12,28v-.92h-1V35h1.14V31.94a2.09,2.09,0,0,0,1.74.86c1.43,0,2.37-1.17,2.37-3s-1-2.8-2.37-2.8"/>
    <polygon class="cls-4" points="9.75 27.11 8.66 27.11 8.66 32.71 9.81 32.71 9.81 27.11 9.75 27.11"/>
    <path class="cls-4" d="M8.55,25.48a.69.69,0,1,0,.69-.69.7.7,0,0,0-.69.69"/>
    <path class="cls-5" d="M32.31,3.63A8.78,8.78,0,0,1,35,3.12a20.07,20.07,0,0,0-8.24-1.63,21.18,21.18,0,0,0-8.26,1.6A8.5,8.5,0,0,1,26.79,11a8.78,8.78,0,0,1,.74-2.92A8.36,8.36,0,0,1,32.31,3.63Z"/>
    <path class="cls-6" d="M32.91,5.23a6.67,6.67,0,0,0-3.8,3.52,6.84,6.84,0,0,0-.2,5.2h0A6.8,6.8,0,0,0,41.66,9.24,6.86,6.86,0,0,0,32.91,5.23ZM35.26,15.7a4.2,4.2,0,1,1,4.2-4.2A4.21,4.21,0,0,1,35.26,15.7Z"/>
    <path class="cls-6" d="M35.26,8.75A2.75,2.75,0,1,0,38,11.5,2.75,2.75,0,0,0,35.26,8.75Zm0,4.17a1.4,1.4,0,1,1,1.4-1.4A1.42,1.42,0,0,1,35.26,12.92Z"/>
    <path class="cls-6" d="M18.21,8.75A2.75,2.75,0,1,0,21,11.5,2.75,2.75,0,0,0,18.21,8.75Zm0,4.17a1.43,1.43,0,0,1-1.43-1.4,1.42,1.42,0,1,1,1.43,1.4Z"/>
    <path class="cls-6" d="M18.3,4.78a6.79,6.79,0,1,0,6.78,6.81A6.82,6.82,0,0,0,18.3,4.78ZM18.21,15.7a4.2,4.2,0,1,1,4.2-4.2A4.21,4.21,0,0,1,18.21,15.7Z"/>
    <path class="cls-7" d="M18.21,10.09a1.43,1.43,0,0,0-1.43,1.4,1.42,1.42,0,1,0,1.43-1.4Z"/>
    <path class="cls-1" d="M35.26,10.09a1.4,1.4,0,1,0,1.4,1.4A1.4,1.4,0,0,0,35.26,10.09Z"/>
    <path class="cls-3" d="M32.31,3.63A8.78,8.78,0,0,1,35,3.12a20.07,20.07,0,0,0-8.24-1.63,21.18,21.18,0,0,0-8.26,1.6A8.5,8.5,0,0,1,26.79,11a8.78,8.78,0,0,1,.74-2.92A8.36,8.36,0,0,1,32.31,3.63Z"/>
    <path class="cls-3" d="M18.3,4.78a6.79,6.79,0,1,0,6.78,6.81A6.82,6.82,0,0,0,18.3,4.78Z"/>
    <path class="cls-3" d="M32.91,5.23a6.67,6.67,0,0,0-3.8,3.52,6.84,6.84,0,0,0-.2,5.2h0A6.8,6.8,0,0,0,41.66,9.24,6.86,6.86,0,0,0,32.91,5.23Z"/>
    <path class="cls-4" d="M18.21,7.29a4.2,4.2,0,1,0,4.2,4.2A4.21,4.21,0,0,0,18.21,7.29Zm0,7A2.75,2.75,0,1,1,21,11.52,2.75,2.75,0,0,1,18.21,14.27Z"/>
    <path class="cls-4" d="M35.26,7.29a4.2,4.2,0,1,0,4.2,4.2A4.21,4.21,0,0,0,35.26,7.29Zm0,7A2.75,2.75,0,1,1,38,11.52,2.75,2.75,0,0,1,35.26,14.27Z"/>
    <path class="cls-4" d="M46.09,3.72h.11c.14,0,.2-.06.2-.14s-.06-.14-.2-.14h-.09v.29Zm.14-.46c.31,0,.46.11.46.31a.28.28,0,0,1-.23.29l.23.49h-.31l-.2-.43h-.09v.43h-.29V3.26Zm-.57,0a.77.77,0,0,0-.23.57.91.91,0,0,0,.23.57.76.76,0,0,0,.57.26.85.85,0,0,0,.57-.23.83.83,0,0,0,0-1.14A.72.72,0,0,0,46.24,3a.8.8,0,0,0-.57.23M47,3.12a1,1,0,0,1,.29.69,1.07,1.07,0,0,1-.29.71,1.06,1.06,0,0,1-.69.29,1,1,0,0,1-.71-.31,1.06,1.06,0,0,1-.29-.69,1.13,1.13,0,0,1,.29-.71,1.06,1.06,0,0,1,.69-.29,1.16,1.16,0,0,1,.71.31"/>
  </g>
</svg>
